# xmcd CD database file
#
# Track frame offsets:
#	150
#	15531
#	26793
#	38283
#	53709
#	65766
#	78460
#	96552
#	113135
#	128006
#	144671
#	158085
#
# Disc length: 2272 seconds
#
# Revision: 2
# Processed by: cddbd v1.5.2PL0 Copyright (c) Steve Scherf et al.
# Submitted via: CDex 1.70beta2
#
DISCID=9a08de0c
DTITLE=Georgie Fame - Georgie Does His Thing With Strings
DYEAR=1969
DGENRE=Pop
TTITLE0=And I Love Her (Lennon-McCartney)
TTITLE1=Maybe In The Spring Again (J.Alexander Ryan-J.Lacey)
TTITLE2=In The Wee Small Hours (D.Mann-B.Hilliard)
TTITLE3=What's News (B.Haggart-J.Burke)
TTITLE4=Woe Is Me (P.Smythe-J.Alexander Ryan)
TTITLE5=A House Is Not A Home (Bacharach-David)
TTITLE6=This Guy's In Love With You (Bacharach-David)
TTITLE7=Girl Talk (N.Hefti-B.Troup)
TTITLE8=Who's Kissing You Blues (G.Fame-J.Ryan)
TTITLE9=Everything Happends To Me (M.Dennis-E.Boyd)
TTITLE10=Guess Who I Saw Today (M.Grand-E.Boyd)
TTITLE11=Need Your Love So Bad
EXTD=YEAR: 1969
EXTT0=
EXTT1=
EXTT2=
EXTT3=
EXTT4=
EXTT5=
EXTT6=
EXTT7=
EXTT8=
EXTT9=
EXTT10=
EXTT11=
PLAYORDER=
